<svg width="50" height="50" viewBox="0 0 50 50" fill="none" xmlns="http://www.w3.org/2000/svg">
<circle cx="25" cy="25" r="25" fill="#F4CE14"/>
<path d="M22.803 22.3115C23.313 21.776 23.517 21.2915 23.517 20.909C23.517 20.1185 22.7775 19.634 22.0125 19.634C21.579 19.634 21.1455 19.787 20.7885 20.1695L16.989 24.02C16.479 24.53 16.224 25.2185 16.224 25.856C16.224 26.519 16.479 27.1565 16.9635 27.6665L20.7375 31.466C21.0945 31.823 21.5535 31.976 21.9615 31.976C22.7265 31.976 23.466 31.4915 23.466 30.7265C23.466 30.3185 23.2875 29.834 22.7775 29.2985L20.9925 27.488H34.1505C34.992 27.488 35.6805 26.7995 35.6805 25.907C35.6805 25.0655 34.992 24.377 34.1505 24.377H20.7885L22.803 22.3115Z" fill="#EDEFEE"/>
</svg>
