<svg width="17" height="11" viewBox="0 0 17 11" fill="none" xmlns="http://www.w3.org/2000/svg">
<path d="M14.1712 1.50514C14.1712 0.677315 13.4209 0 12.504 0H10.0032V1.50514H12.504V3.49946L9.60304 6.77315H6.66878V3.01029H3.33439C1.49214 3.01029 0 4.35739 0 6.02058V8.27829H1.6672C1.6672 9.52756 2.78422 10.536 4.16799 10.536C5.55176 10.536 6.66878 9.52756 6.66878 8.27829H10.4033L14.1712 4.02626V1.50514ZM4.16799 9.03087C3.70951 9.03087 3.33439 8.69221 3.33439 8.27829H5.00159C5.00159 8.69221 4.62647 9.03087 4.16799 9.03087Z" fill="#333333"/>
<path d="M6.66879 0.752563H2.50079V2.25769H6.66879V0.752563Z" fill="#333333"/>
<path d="M14.1711 6.02057C12.7874 6.02057 11.6703 7.02901 11.6703 8.27827C11.6703 9.52754 12.7874 10.536 14.1711 10.536C15.5549 10.536 16.6719 9.52754 16.6719 8.27827C16.6719 7.02901 15.5549 6.02057 14.1711 6.02057ZM14.1711 9.03084C13.7127 9.03084 13.3375 8.69219 13.3375 8.27827C13.3375 7.86436 13.7127 7.52571 14.1711 7.52571C14.6296 7.52571 15.0047 7.86436 15.0047 8.27827C15.0047 8.69219 14.6296 9.03084 14.1711 9.03084Z" fill="#333333"/>
</svg>
